# xmcd
#
# Track frame offsets: 
#        150
#        9607
#        26532
#        42082
#        54980
#        64842
#        76812
#        86025
#        101200
#        116175
#        130695
#        144377
#
# Disc length: 2061 seconds
#
# Revision: 3
# Processed by: cddbd v1.5.2PL0 Copyright (c) Steve Scherf et al.
# Submitted via: ExactAudioCopy v1.3
#
DISCID=9a080b0c
DTITLE=Marty Robbins - What God Has Done
DYEAR=1963
DGENRE=Country
TTITLE0=When The Roll Is Called Up Yonder
TTITLE1=An Evening Prayer
TTITLE2=A Little Spot In Heaven
TTITLE3=What God Has Done
TTITLE4=You Gotta Climb
TTITLE5=Almost Persuaded
TTITLE6=There's Power In The Blood
TTITLE7=With His Hand On My Shoulder
TTITLE8=The Great Speckled Bird
TTITLE9=Will The Circle Be Unbroken
TTITLE10=Who At My Door Is Standing
TTITLE11=Have Thine Own Way, Lord
EXTD=
EXTT0=
EXTT1=
EXTT2=
EXTT3=
EXTT4=
EXTT5=
EXTT6=
EXTT7=
EXTT8=
EXTT9=
EXTT10=
EXTT11=
PLAYORDER=
